<svg width="32" height="32" viewBox="0 0 32 32" fill="none" xmlns="http://www.w3.org/2000/svg">
<g clip-path="url(#clip0_1433_1110)">
<path d="M30 20.0004C30.002 18.9991 29.7534 18.0131 29.2768 17.1325C28.8002 16.2518 28.1107 15.5045 27.2713 14.9585C26.4319 14.4126 25.4692 14.0854 24.4709 14.0068C23.4726 13.9282 22.4706 14.1007 21.5561 14.5086C20.6415 14.9165 19.8436 15.5467 19.2351 16.342C18.6266 17.1372 18.2267 18.0721 18.072 19.0614C17.9173 20.0507 18.0127 21.063 18.3495 22.0061C18.6862 22.9491 19.2536 23.7928 20 24.4604V32.0004L24 30.1064L28 32.0004V24.4604C28.6287 23.8998 29.1318 23.2127 29.4765 22.4441C29.8211 21.6755 29.9995 20.8427 30 20.0004ZM26 28.8404L24 27.8934L22 28.8404V25.6504C23.2925 26.1172 24.7075 26.1172 26 25.6504V28.8404ZM24 24.0004C23.2089 24.0004 22.4355 23.7658 21.7777 23.3263C21.1199 22.8868 20.6072 22.262 20.3045 21.5311C20.0017 20.8002 19.9225 19.996 20.0768 19.22C20.2312 18.4441 20.6122 17.7314 21.1716 17.172C21.731 16.6126 22.4437 16.2316 23.2196 16.0773C23.9956 15.9229 24.7998 16.0021 25.5307 16.3049C26.2616 16.6076 26.8863 17.1203 27.3259 17.7781C27.7654 18.4359 28 19.2093 28 20.0004C27.9987 21.0609 27.5768 22.0775 26.827 22.8274C26.0771 23.5772 25.0604 23.9991 24 24.0004Z" fill="black"/>
<path d="M25 5H22V4C21.9984 3.47005 21.7872 2.96227 21.4125 2.58753C21.0377 2.2128 20.5299 2.00158 20 2H12C11.4701 2.00158 10.9623 2.2128 10.5875 2.58753C10.2128 2.96227 10.0016 3.47005 10 4V5H7C6.47005 5.00158 5.96227 5.2128 5.58753 5.58753C5.2128 5.96227 5.00158 6.47005 5 7V28C5.00158 28.5299 5.2128 29.0377 5.58753 29.4125C5.96227 29.7872 6.47005 29.9984 7 30H16V28H7V7H10V10H22V7H25V12H27V7C26.9984 6.47005 26.7872 5.96227 26.4125 5.58753C26.0377 5.2128 25.5299 5.00158 25 5ZM20 8H12V4H20V8Z" fill="black"/>
</g>
<defs>
<clipPath id="clip0_1433_1110">
<rect width="32" height="32" fill="white"/>
</clipPath>
</defs>
</svg>
