<svg width="32" height="32" viewBox="0 0 32 32" fill="none" xmlns="http://www.w3.org/2000/svg">
<path d="M22.6666 16.0007C18.9866 16.0007 15.9999 18.9873 15.9999 22.6673C15.9999 26.3473 18.9866 29.334 22.6666 29.334C26.3466 29.334 29.3333 26.3473 29.3333 22.6673C29.3333 18.9873 26.3466 16.0007 22.6666 16.0007ZM24.8666 25.8007L21.9999 22.934V18.6673H23.3333V22.3873L25.7999 24.854L24.8666 25.8007ZM23.9999 4.00065H19.7599C19.1999 2.45398 17.7333 1.33398 15.9999 1.33398C14.2666 1.33398 12.7999 2.45398 12.2399 4.00065H7.99992C6.53325 4.00065 5.33325 5.20065 5.33325 6.66732V26.6673C5.33325 28.134 6.53325 29.334 7.99992 29.334H16.1466C15.3578 28.5683 14.716 27.6645 14.2533 26.6673H7.99992V6.66732H10.6666V10.6673H21.3333V6.66732H23.9999V13.4407C24.9466 13.574 25.8399 13.854 26.6666 14.2407V6.66732C26.6666 5.20065 25.4666 4.00065 23.9999 4.00065ZM15.9999 6.66732C15.2666 6.66732 14.6666 6.06732 14.6666 5.33398C14.6666 4.60065 15.2666 4.00065 15.9999 4.00065C16.7333 4.00065 17.3333 4.60065 17.3333 5.33398C17.3333 6.06732 16.7333 6.66732 15.9999 6.66732Z" fill="black"/>
</svg>
